<svg xmlns="http://www.w3.org/2000/svg" width="512" height="512"><path d="M183.744 101.151c-52.797 32.74-83.033 87.956-85.97 145.633h-47.774l76.603 76.985 76.986-76.985h-47.329c2.801-38.193 23.215-74.296 58.249-96.021 58.121-36.042 134.456-18.141 170.497 39.98 36.041 58.122 18.142 134.456-39.979 170.496-53.189 32.983-121.625 20.784-160.481-26.069l-41.038 41.82c57.759 65.206 155.749 81.321 232.284 33.861 85.522-53.032 111.86-165.352 58.827-250.874-53.033-85.52-165.352-111.858-250.875-58.826z"/></svg>